<?xml version="1.0" encoding="utf-8"?>
<!-- Generator: Adobe Illustrator 17.0.0, SVG Export Plug-In . SVG Version: 6.00 Build 0)  -->
<!DOCTYPE svg PUBLIC "-//W3C//DTD SVG 1.1//EN" "http://www.w3.org/Graphics/SVG/1.1/DTD/svg11.dtd">
<svg version="1.1" id="Calque_1" xmlns="http://www.w3.org/2000/svg" xmlns:xlink="http://www.w3.org/1999/xlink" x="0px" y="0px"
	 width="602.286px" height="87.326px" viewBox="0 0 602.286 87.326" enable-background="new 0 0 602.286 87.326"
	 xml:space="preserve">
<g>
	<path fill="#666666" d="M293.061,47.923c-3.606,3.605-8.591,5.939-14.955,5.939s-11.349-2.334-14.955-5.939
		c-5.303-5.41-6.364-12.729-6.364-20.789s1.061-15.379,6.364-20.788c3.606-3.606,8.591-5.939,14.955-5.939
		s11.349,2.333,14.955,5.939c5.303,5.409,6.364,12.728,6.364,20.788S298.364,42.513,293.061,47.923z M287.652,11.012
		c-2.439-2.439-5.833-3.817-9.546-3.817s-7,1.378-9.44,3.817c-3.818,3.818-4.242,10.289-4.242,16.122
		c0,5.834,0.424,12.304,4.242,16.122c2.44,2.439,5.728,3.818,9.44,3.818s7.106-1.379,9.546-3.818
		c3.818-3.818,4.136-10.288,4.136-16.122C291.788,21.301,291.47,14.83,287.652,11.012z"/>
	<path fill="#666666" d="M346.381,53.226V21.088c0-9.228-4.985-13.894-12.834-13.894s-12.939,4.772-12.939,13.894v32.138h-7.637
		V1.042h7.637V6.77c3.712-4.242,8.804-6.363,14.637-6.363c5.621,0,10.183,1.696,13.364,4.879c3.712,3.605,5.409,8.484,5.409,14.53
		v33.41H346.381z"/>
	<path fill="#666666" d="M368.9,28.194v-7.106h29.062v7.106H368.9z"/>
	<path fill="#666666" d="M429.124,53.862c-8.803,0-15.697-2.016-21.425-7.531l5.091-5.091c4.137,4.349,9.759,6.046,16.229,6.046
		c8.591,0,13.895-3.076,13.895-9.228c0-4.561-2.652-7.106-8.697-7.637l-8.592-0.742c-10.182-0.849-15.591-5.409-15.591-14.001
		c0-9.546,8.061-15.272,19.197-15.272c7.425,0,14.106,1.803,18.773,5.621l-4.985,4.984c-3.712-2.863-8.485-4.136-13.895-4.136
		c-7.637,0-11.667,3.288-11.667,8.591c0,4.455,2.546,7.106,9.122,7.637l8.379,0.742c9.121,0.849,15.379,4.349,15.379,14.106
		C450.337,48.028,441.746,53.862,429.124,53.862z"/>
	<path fill="#666666" d="M494.004,53.226V48.24c-4.243,4.243-8.061,5.622-15.062,5.622c-7.212,0-11.454-1.379-14.742-4.773
		c-2.546-2.545-3.925-6.47-3.925-10.606c0-9.121,6.364-15.061,18.031-15.061h15.697v-4.985c0-7.637-3.818-11.455-13.364-11.455
		c-6.682,0-10.076,1.591-13.151,5.939l-5.197-4.772c4.666-6.046,9.97-7.742,18.455-7.742c14,0,20.895,6.045,20.895,17.394v35.426
		H494.004z M494.004,29.149h-14.637c-7.849,0-11.667,3.182-11.667,9.228c0,6.045,3.712,8.909,11.985,8.909
		c4.454,0,8.379-0.318,11.667-3.5c1.803-1.697,2.651-4.667,2.651-9.016V29.149z"/>
	<path fill="#666666" d="M535.019,53.226h-6.788L509.14,1.042h8.272l14.213,41.896l14.318-41.896h8.273L535.019,53.226z"/>
	<path fill="#666666" d="M567.072,29.149c0,11.454,5.409,18.03,15.38,18.03c6.045,0,9.545-1.803,13.682-5.939l5.197,4.561
		c-5.303,5.304-10.182,8.062-19.092,8.062c-13.788,0-22.804-8.273-22.804-26.729c0-16.864,8.167-26.728,21.425-26.728
		c13.471,0,21.426,9.758,21.426,25.243v3.5H567.072z M593.059,14.725c-2.016-4.773-6.683-7.849-12.198-7.849
		c-5.515,0-10.182,3.075-12.197,7.849c-1.166,2.863-1.379,4.454-1.591,8.697h27.577C594.437,19.179,594.225,17.588,593.059,14.725z"
		/>
</g>
<g>
	<g>
		<path fill="#666666" d="M175.731,61.38c-5.257,0-8.697-1.327-11.989-4.618l2.555-2.556c2.899,2.899,5.601,3.833,9.532,3.833
			c5.11,0,8.254-2.408,8.254-6.486c0-1.817-0.541-3.39-1.67-4.372c-1.13-0.983-2.015-1.278-4.569-1.671l-4.078-0.639
			c-2.751-0.442-4.914-1.327-6.437-2.653c-1.769-1.572-2.653-3.734-2.653-6.535c0-5.944,4.274-9.875,11.203-9.875
			c4.471,0,7.419,1.13,10.416,3.832l-2.408,2.407c-2.162-1.965-4.471-2.997-8.156-2.997c-4.668,0-7.37,2.604-7.37,6.485
			c0,1.72,0.491,3.096,1.572,4.029s2.899,1.621,4.717,1.916l3.833,0.59c3.292,0.491,4.913,1.18,6.387,2.457
			c1.916,1.621,2.948,4.028,2.948,6.928C187.817,57.597,183.002,61.38,175.731,61.38z"/>
	</g>
	<g>
		<path fill="#666666" d="M17.182,72.605c-3.046,0-5.355-2.063-5.355-6.19c0-4.128,2.309-6.191,5.355-6.191
			c1.67,0,2.727,0.442,3.979,1.794l-1.204,1.13c-0.909-1.008-1.621-1.352-2.776-1.352c-1.179,0-2.162,0.467-2.801,1.376
			c-0.565,0.786-0.786,1.72-0.786,3.243c0,1.522,0.221,2.456,0.786,3.242c0.639,0.909,1.622,1.376,2.801,1.376
			c1.155,0,1.867-0.368,2.776-1.376l1.204,1.155C19.909,72.163,18.853,72.605,17.182,72.605z"/>
		<path fill="#666666" d="M40.053,72.458v-7.443c0-2.138-1.155-3.219-2.973-3.219c-1.769,0-3.022,1.105-3.022,3.021v7.641H32.29
			v-7.443c0-2.138-1.155-3.219-2.973-3.219s-3.021,1.105-3.021,3.219v7.443h-1.769V60.371h1.769v1.327
			c0.86-0.983,2.063-1.475,3.415-1.475c1.67,0,2.973,0.688,3.709,2.015c0.934-1.326,2.285-2.015,3.98-2.015
			c1.302,0,2.383,0.418,3.12,1.13c0.86,0.836,1.302,1.966,1.302,3.366v7.738H40.053z"/>
		<path fill="#666666" d="M53.343,72.458v-1.449c-0.982,1.277-2.113,1.597-3.439,1.597c-1.228,0-2.309-0.418-2.948-1.057
			c-1.229-1.229-1.474-3.242-1.474-5.134s0.246-3.906,1.474-5.135c0.639-0.639,1.72-1.057,2.948-1.057
			c1.327,0,2.432,0.295,3.415,1.548v-6.805h1.769v17.491H53.343z M50.296,61.796c-2.628,0-3.046,2.261-3.046,4.619
			s0.418,4.618,3.046,4.618c2.629,0,3.022-2.26,3.022-4.618S52.925,61.796,50.296,61.796z"/>
	</g>
	<path fill="none" stroke="#666666" stroke-miterlimit="10" d="M116.5,79.406c0,2.261-1.833,4.094-4.094,4.094H4.594
		c-2.261,0-4.094-1.833-4.094-4.094V4.594C0.5,2.333,2.333,0.5,4.594,0.5h107.811c2.261,0,4.094,1.833,4.094,4.094V79.406z"/>
	<path fill="none" stroke="#666666" stroke-miterlimit="10" d="M216.5,79.406c0,2.261-1.833,4.094-4.094,4.094h-74.811
		c-2.261,0-4.094-1.833-4.094-4.094V4.594c0-2.261,1.833-4.094,4.094-4.094h74.811c2.261,0,4.094,1.833,4.094,4.094V79.406z"/>
	<g>
		<path fill="#666666" d="M93.02,67.363v2.55c0,1.28-0.462,2.377-1.387,3.292c-0.925,0.915-2.038,1.372-3.337,1.372
			s-2.41-0.46-3.33-1.38s-1.38-2.034-1.38-3.345c0-1.279,0.46-2.385,1.38-3.314s2.015-1.395,3.285-1.395h2.55v-4.439h-2.55
			c-1.27,0-2.365-0.465-3.285-1.396c-0.92-0.93-1.38-2.039-1.38-3.329c0-1.3,0.46-2.41,1.38-3.33s2.03-1.38,3.33-1.38
			s2.412,0.458,3.337,1.373c0.925,0.914,1.387,2.012,1.387,3.292v2.55h4.439v-2.55c0-1.28,0.462-2.378,1.387-3.292
			c0.925-0.915,2.038-1.373,3.337-1.373c1.31,0,2.422,0.46,3.337,1.38c0.915,0.92,1.373,2.03,1.373,3.33
			c0,1.29-0.458,2.399-1.373,3.329c-0.915,0.931-2.012,1.396-3.292,1.396h-2.55v4.439h2.55c1.28,0,2.377,0.465,3.292,1.395
			c0.915,0.93,1.373,2.035,1.373,3.314c0,1.311-0.458,2.425-1.373,3.345c-0.915,0.92-2.027,1.38-3.337,1.38
			c-1.3,0-2.413-0.457-3.337-1.372s-1.387-2.012-1.387-3.292v-2.55H93.02z M90.8,58.484v-2.505c0-0.69-0.245-1.277-0.735-1.763
			c-0.49-0.484-1.08-0.728-1.77-0.728c-0.68,0-1.265,0.243-1.755,0.728c-0.49,0.485-0.735,1.072-0.735,1.763
			c0,0.689,0.245,1.28,0.735,1.77c0.49,0.49,1.08,0.735,1.77,0.735H90.8z M90.8,67.363h-2.49c-0.69,0-1.28,0.245-1.77,0.734
			c-0.49,0.49-0.735,1.075-0.735,1.755c0,0.69,0.245,1.28,0.735,1.771c0.49,0.489,1.08,0.734,1.77,0.734
			c0.68,0,1.265-0.245,1.755-0.734c0.49-0.49,0.735-1.075,0.735-1.755V67.363z M93.02,65.144h4.439v-4.439H93.02V65.144z
			 M99.679,58.484h2.505c0.68,0,1.265-0.245,1.755-0.735c0.49-0.489,0.735-1.08,0.735-1.77c0-0.69-0.243-1.277-0.728-1.763
			c-0.485-0.484-1.072-0.728-1.762-0.728s-1.28,0.243-1.77,0.728c-0.49,0.485-0.735,1.072-0.735,1.763V58.484z M99.679,67.363v2.505
			c0,0.68,0.245,1.265,0.735,1.755c0.49,0.489,1.08,0.734,1.77,0.734s1.277-0.245,1.762-0.734c0.485-0.49,0.728-1.08,0.728-1.771
			c0-0.68-0.245-1.265-0.735-1.755c-0.49-0.489-1.075-0.734-1.755-0.734H99.679z"/>
	</g>
</g>
<g>
	<path fill="#666666" d="M264.571,83.382l-3.028-5.906h-3.196v5.906h-1.42V70.073h5.103c2.318,0,3.944,1.401,3.944,3.701
		c0,1.943-1.178,3.215-2.897,3.57l3.159,6.037H264.571z M261.898,71.344h-3.552v4.879h3.552c1.551,0,2.654-0.804,2.654-2.43
		S263.449,71.344,261.898,71.344z"/>
	<path fill="#666666" d="M274.57,83.382v-1.028c-0.654,0.748-1.57,1.141-2.598,1.141c-0.991,0-1.813-0.299-2.374-0.86
		c-0.654-0.635-0.935-1.514-0.935-2.579v-5.869h1.346v5.663c0,1.627,0.86,2.449,2.243,2.449s2.299-0.841,2.299-2.449v-5.663h1.346
		v9.196H274.57z"/>
	<path fill="#666666" d="M284.953,83.382v-5.664c0-1.626-0.878-2.448-2.262-2.448s-2.28,0.841-2.28,2.448v5.664h-1.346v-9.196h1.346
		v1.009c0.654-0.747,1.551-1.121,2.579-1.121c0.991,0,1.794,0.299,2.355,0.859c0.654,0.636,0.953,1.496,0.953,2.562v5.888H284.953z"
		/>
	<path fill="#666666" d="M299.443,83.382v-0.879c-0.748,0.748-1.421,0.991-2.654,0.991c-1.271,0-2.019-0.243-2.598-0.841
		c-0.449-0.449-0.692-1.141-0.692-1.87c0-1.607,1.122-2.654,3.178-2.654h2.767v-0.878c0-1.346-0.673-2.019-2.355-2.019
		c-1.177,0-1.775,0.28-2.318,1.047l-0.916-0.842c0.822-1.065,1.757-1.364,3.252-1.364c2.467,0,3.682,1.065,3.682,3.065v6.243
		H299.443z M299.443,79.139h-2.58c-1.383,0-2.056,0.561-2.056,1.626s0.654,1.57,2.112,1.57c0.785,0,1.477-0.056,2.056-0.617
		c0.318-0.299,0.467-0.822,0.467-1.588V79.139z"/>
	<path fill="#666666" d="M311.615,83.494c-1.552,0-2.767-0.355-3.776-1.327l0.897-0.897c0.729,0.767,1.719,1.065,2.859,1.065
		c1.514,0,2.449-0.542,2.449-1.626c0-0.804-0.468-1.253-1.533-1.346l-1.514-0.131c-1.794-0.149-2.748-0.953-2.748-2.468
		c0-1.682,1.421-2.691,3.383-2.691c1.309,0,2.486,0.317,3.309,0.99l-0.878,0.879c-0.654-0.505-1.495-0.729-2.448-0.729
		c-1.346,0-2.057,0.579-2.057,1.514c0,0.785,0.449,1.252,1.607,1.346l1.477,0.131c1.607,0.149,2.711,0.767,2.711,2.486
		C315.354,82.466,313.839,83.494,311.615,83.494z"/>
	<path fill="#666666" d="M323.705,83.382v-5.683c0-1.607-0.859-2.43-2.243-2.43s-2.299,0.841-2.299,2.43v5.683h-1.347V70.073h1.347
		v5.121c0.673-0.766,1.552-1.121,2.579-1.121c2.075,0,3.309,1.327,3.309,3.402v5.906H323.705z"/>
	<path fill="#666666" d="M329.056,79.139c0,2.019,0.953,3.178,2.71,3.178c1.065,0,1.683-0.317,2.412-1.047l0.915,0.804
		c-0.935,0.935-1.794,1.421-3.364,1.421c-2.43,0-4.019-1.458-4.019-4.711c0-2.972,1.439-4.71,3.775-4.71
		c2.374,0,3.776,1.72,3.776,4.448v0.617H329.056z M333.635,76.597c-0.354-0.841-1.177-1.383-2.149-1.383
		c-0.972,0-1.794,0.542-2.149,1.383c-0.205,0.505-0.243,0.785-0.28,1.532h4.86C333.878,77.382,333.841,77.102,333.635,76.597z"/>
	<path fill="#666666" d="M340.253,83.382c-1.607,0-2.337-1.047-2.337-2.448v-10.86h1.346v10.804c0,0.897,0.3,1.346,1.234,1.346
		h0.729v1.159H340.253z"/>
	<path fill="#666666" d="M345.745,83.382c-1.607,0-2.337-1.047-2.337-2.448v-10.86h1.346v10.804c0,0.897,0.3,1.346,1.234,1.346
		h0.729v1.159H345.745z"/>
	<path fill="#666666" d="M357.226,83.494c-2.318,0-4.075-1.57-4.075-4.711c0-3.14,1.757-4.71,4.075-4.71
		c1.271,0,2.074,0.337,3.027,1.364l-0.916,0.86c-0.691-0.767-1.233-1.028-2.111-1.028c-0.897,0-1.646,0.355-2.132,1.047
		c-0.43,0.598-0.598,1.309-0.598,2.467c0,1.159,0.168,1.869,0.598,2.468c0.486,0.691,1.234,1.047,2.132,1.047
		c0.878,0,1.42-0.28,2.111-1.047l0.916,0.879C359.3,83.157,358.496,83.494,357.226,83.494z"/>
	<path fill="#666666" d="M368.521,82.447c-0.636,0.636-1.514,1.047-2.636,1.047c-1.121,0-2-0.411-2.636-1.047
		c-0.935-0.953-1.121-2.243-1.121-3.664c0-1.42,0.187-2.71,1.121-3.663c0.636-0.636,1.515-1.047,2.636-1.047
		c1.122,0,2,0.411,2.636,1.047c0.935,0.953,1.122,2.243,1.122,3.663C369.643,80.204,369.455,81.494,368.521,82.447z M367.567,75.942
		c-0.43-0.43-1.028-0.673-1.683-0.673s-1.233,0.243-1.663,0.673c-0.673,0.673-0.748,1.813-0.748,2.841
		c0,1.028,0.075,2.169,0.748,2.842c0.43,0.43,1.009,0.673,1.663,0.673s1.253-0.243,1.683-0.673c0.673-0.673,0.729-1.813,0.729-2.842
		C368.296,77.756,368.24,76.615,367.567,75.942z"/>
	<path fill="#666666" d="M384.222,83.382v-5.664c0-1.626-0.879-2.448-2.262-2.448c-1.347,0-2.3,0.841-2.3,2.299v5.813h-1.346v-5.664
		c0-1.626-0.879-2.448-2.262-2.448s-2.299,0.841-2.299,2.448v5.664h-1.346v-9.196h1.346v1.009c0.654-0.747,1.57-1.121,2.598-1.121
		c1.271,0,2.262,0.523,2.823,1.532c0.71-1.009,1.738-1.532,3.027-1.532c0.991,0,1.813,0.317,2.374,0.859
		c0.654,0.636,0.991,1.496,0.991,2.562v5.888H384.222z"/>
	<path fill="#666666" d="M400.505,83.382v-5.664c0-1.626-0.879-2.448-2.262-2.448c-1.347,0-2.3,0.841-2.3,2.299v5.813h-1.346v-5.664
		c0-1.626-0.879-2.448-2.262-2.448s-2.299,0.841-2.299,2.448v5.664h-1.346v-9.196h1.346v1.009c0.654-0.747,1.57-1.121,2.598-1.121
		c1.271,0,2.262,0.523,2.823,1.532c0.71-1.009,1.738-1.532,3.027-1.532c0.991,0,1.813,0.317,2.374,0.859
		c0.654,0.636,0.991,1.496,0.991,2.562v5.888H400.505z"/>
	<path fill="#666666" d="M410.232,83.382v-0.879c-0.748,0.748-1.421,0.991-2.654,0.991c-1.271,0-2.019-0.243-2.599-0.841
		c-0.448-0.449-0.691-1.141-0.691-1.87c0-1.607,1.122-2.654,3.178-2.654h2.767v-0.878c0-1.346-0.673-2.019-2.355-2.019
		c-1.178,0-1.775,0.28-2.317,1.047l-0.916-0.842c0.822-1.065,1.757-1.364,3.252-1.364c2.468,0,3.683,1.065,3.683,3.065v6.243
		H410.232z M410.232,79.139h-2.58c-1.383,0-2.056,0.561-2.056,1.626s0.654,1.57,2.112,1.57c0.785,0,1.477-0.056,2.056-0.617
		c0.318-0.299,0.468-0.822,0.468-1.588V79.139z"/>
	<path fill="#666666" d="M420.569,83.382v-5.664c0-1.626-0.879-2.448-2.262-2.448s-2.28,0.841-2.28,2.448v5.664h-1.346v-9.196h1.346
		v1.009c0.654-0.747,1.551-1.121,2.579-1.121c0.991,0,1.795,0.299,2.355,0.859c0.654,0.636,0.953,1.496,0.953,2.562v5.888H420.569z"
		/>
	<path fill="#666666" d="M430.589,83.382v-1.103c-0.748,0.972-1.607,1.215-2.617,1.215c-0.935,0-1.757-0.318-2.243-0.804
		c-0.935-0.935-1.121-2.468-1.121-3.907c0-1.438,0.187-2.972,1.121-3.906c0.486-0.486,1.309-0.804,2.243-0.804
		c1.01,0,1.851,0.225,2.599,1.178v-5.178h1.346v13.309H430.589z M428.271,75.27c-2,0-2.318,1.72-2.318,3.514
		c0,1.795,0.318,3.515,2.318,3.515s2.299-1.72,2.299-3.515C430.57,76.989,430.271,75.27,428.271,75.27z"/>
	<path fill="#666666" d="M448.686,83.382h-1.252l-2.411-7.141l-2.393,7.141h-1.253l-2.915-9.196h1.458l2.111,7.383l2.412-7.383
		h1.158l2.431,7.383l2.093-7.383h1.458L448.686,83.382z"/>
	<path fill="#666666" d="M459.586,83.382v-5.683c0-1.607-0.86-2.43-2.243-2.43s-2.299,0.841-2.299,2.43v5.683h-1.346V70.073h1.346
		v5.121c0.673-0.766,1.551-1.121,2.579-1.121c2.075,0,3.309,1.327,3.309,3.402v5.906H459.586z"/>
	<path fill="#666666" d="M464.936,79.139c0,2.019,0.953,3.178,2.71,3.178c1.065,0,1.683-0.317,2.412-1.047l0.915,0.804
		c-0.935,0.935-1.794,1.421-3.364,1.421c-2.43,0-4.019-1.458-4.019-4.711c0-2.972,1.439-4.71,3.775-4.71
		c2.374,0,3.776,1.72,3.776,4.448v0.617H464.936z M469.515,76.597c-0.354-0.841-1.177-1.383-2.149-1.383
		c-0.972,0-1.794,0.542-2.149,1.383c-0.205,0.505-0.243,0.785-0.28,1.532h4.86C469.758,77.382,469.721,77.102,469.515,76.597z"/>
	<path fill="#666666" d="M479.733,83.382v-5.664c0-1.626-0.879-2.448-2.262-2.448s-2.28,0.841-2.28,2.448v5.664h-1.346v-9.196h1.346
		v1.009c0.654-0.747,1.551-1.121,2.579-1.121c0.991,0,1.795,0.299,2.355,0.859c0.654,0.636,0.953,1.496,0.953,2.562v5.888H479.733z"
		/>
	<path fill="#666666" d="M491.289,85.606c-0.188,0.505-0.393,0.841-0.654,1.084c-0.486,0.467-1.141,0.636-1.795,0.636h-0.579V86.13
		h0.411c0.935,0,1.215-0.3,1.515-1.141l0.653-1.794l-3.308-9.01h1.458l2.523,7.383l2.504-7.383h1.458L491.289,85.606z"/>
	<path fill="#666666" d="M503.212,82.447c-0.636,0.636-1.514,1.047-2.636,1.047c-1.121,0-2-0.411-2.636-1.047
		c-0.935-0.953-1.121-2.243-1.121-3.664c0-1.42,0.187-2.71,1.121-3.663c0.636-0.636,1.515-1.047,2.636-1.047
		c1.122,0,2,0.411,2.636,1.047c0.935,0.953,1.122,2.243,1.122,3.663C504.334,80.204,504.146,81.494,503.212,82.447z M502.259,75.942
		c-0.43-0.43-1.028-0.673-1.683-0.673s-1.233,0.243-1.663,0.673c-0.673,0.673-0.748,1.813-0.748,2.841
		c0,1.028,0.075,2.169,0.748,2.842c0.43,0.43,1.009,0.673,1.663,0.673s1.253-0.243,1.683-0.673c0.673-0.673,0.729-1.813,0.729-2.842
		C502.987,77.756,502.932,76.615,502.259,75.942z"/>
	<path fill="#666666" d="M512.906,83.382v-1.028c-0.654,0.748-1.569,1.141-2.598,1.141c-0.991,0-1.813-0.299-2.374-0.86
		C507.28,81.999,507,81.12,507,80.055v-5.869h1.346v5.663c0,1.627,0.86,2.449,2.243,2.449s2.299-0.841,2.299-2.449v-5.663h1.346
		v9.196H512.906z"/>
	<path fill="#666666" d="M525.153,83.494c-1.551,0-2.766-0.355-3.775-1.327l0.897-0.897c0.729,0.767,1.72,1.065,2.859,1.065
		c1.515,0,2.449-0.542,2.449-1.626c0-0.804-0.468-1.253-1.533-1.346l-1.514-0.131c-1.795-0.149-2.748-0.953-2.748-2.468
		c0-1.682,1.421-2.691,3.384-2.691c1.308,0,2.485,0.317,3.308,0.99l-0.878,0.879c-0.654-0.505-1.495-0.729-2.449-0.729
		c-1.346,0-2.056,0.579-2.056,1.514c0,0.785,0.448,1.252,1.607,1.346l1.477,0.131c1.607,0.149,2.711,0.767,2.711,2.486
		C528.893,82.466,527.378,83.494,525.153,83.494z"/>
	<path fill="#666666" d="M536.939,83.382v-0.879c-0.748,0.748-1.421,0.991-2.654,0.991c-1.271,0-2.019-0.243-2.599-0.841
		c-0.448-0.449-0.691-1.141-0.691-1.87c0-1.607,1.122-2.654,3.178-2.654h2.767v-0.878c0-1.346-0.673-2.019-2.355-2.019
		c-1.178,0-1.775,0.28-2.317,1.047l-0.916-0.842c0.822-1.065,1.757-1.364,3.252-1.364c2.468,0,3.683,1.065,3.683,3.065v6.243
		H536.939z M536.939,79.139h-2.58c-1.383,0-2.056,0.561-2.056,1.626s0.654,1.57,2.112,1.57c0.785,0,1.477-0.056,2.056-0.617
		c0.318-0.299,0.468-0.822,0.468-1.588V79.139z"/>
	<path fill="#666666" d="M544.544,83.382h-1.196l-3.364-9.196h1.458l2.504,7.383l2.523-7.383h1.458L544.544,83.382z"/>
	<path fill="#666666" d="M550.57,79.139c0,2.019,0.953,3.178,2.71,3.178c1.065,0,1.683-0.317,2.412-1.047l0.915,0.804
		c-0.935,0.935-1.794,1.421-3.364,1.421c-2.43,0-4.019-1.458-4.019-4.711c0-2.972,1.439-4.71,3.775-4.71
		c2.374,0,3.776,1.72,3.776,4.448v0.617H550.57z M555.149,76.597c-0.354-0.841-1.177-1.383-2.149-1.383
		c-0.972,0-1.794,0.542-2.149,1.383c-0.205,0.505-0.243,0.785-0.28,1.532h4.86C555.393,77.382,555.355,77.102,555.149,76.597z"/>
	<path fill="#666666" d="M569.509,83.382v-0.879c-0.748,0.748-1.421,0.991-2.654,0.991c-1.271,0-2.019-0.243-2.599-0.841
		c-0.448-0.449-0.691-1.141-0.691-1.87c0-1.607,1.122-2.654,3.178-2.654h2.767v-0.878c0-1.346-0.673-2.019-2.355-2.019
		c-1.178,0-1.775,0.28-2.317,1.047l-0.916-0.842c0.822-1.065,1.757-1.364,3.252-1.364c2.468,0,3.683,1.065,3.683,3.065v6.243
		H569.509z M569.509,79.139h-2.58c-1.383,0-2.056,0.561-2.056,1.626s0.654,1.57,2.112,1.57c0.785,0,1.477-0.056,2.056-0.617
		c0.318-0.299,0.468-0.822,0.468-1.588V79.139z"/>
	<path fill="#666666" d="M580.429,75.27v8.112h-1.346V75.27h-1.178v-1.028h1.178v-1.738c0-1.364,0.767-2.467,2.336-2.467h0.973
		v1.158h-0.729c-0.859,0-1.233,0.505-1.233,1.346v1.701h1.963v1.028H580.429z"/>
	<path fill="#666666" d="M584.622,71.568v-1.514h1.514v1.514H584.622z M584.697,83.382v-9.196h1.346v9.196H584.697z"/>
	<path fill="#666666" d="M591.487,83.382c-1.607,0-2.337-1.047-2.337-2.448v-10.86h1.346v10.804c0,0.897,0.3,1.346,1.234,1.346
		h0.729v1.159H591.487z"/>
	<path fill="#666666" d="M595.445,79.139c0,2.019,0.953,3.178,2.71,3.178c1.065,0,1.683-0.317,2.412-1.047l0.915,0.804
		c-0.935,0.935-1.794,1.421-3.364,1.421c-2.43,0-4.019-1.458-4.019-4.711c0-2.972,1.439-4.71,3.775-4.71
		c2.374,0,3.776,1.72,3.776,4.448v0.617H595.445z M600.024,76.597c-0.354-0.841-1.177-1.383-2.149-1.383
		c-0.972,0-1.794,0.542-2.149,1.383c-0.205,0.505-0.243,0.785-0.28,1.532h4.86C600.268,77.382,600.23,77.102,600.024,76.597z"/>
</g>
</svg>
