<?xml version="1.0" encoding="utf-8"?>
<!-- Generator: Adobe Illustrator 17.0.0, SVG Export Plug-In . SVG Version: 6.00 Build 0)  -->
<!DOCTYPE svg PUBLIC "-//W3C//DTD SVG 1.1//EN" "http://www.w3.org/Graphics/SVG/1.1/DTD/svg11.dtd">
<svg version="1.1" id="Calque_1" xmlns="http://www.w3.org/2000/svg" xmlns:xlink="http://www.w3.org/1999/xlink" x="0px" y="0px"
	 width="540.286px" height="62px" viewBox="0 0 540.286 62" enable-background="new 0 0 540.286 62" xml:space="preserve">
<g>
	<path fill="#666666" d="M231.061,51.923c-3.606,3.605-8.591,5.939-14.955,5.939s-11.349-2.334-14.955-5.939
		c-5.303-5.41-6.364-12.729-6.364-20.789s1.061-15.379,6.364-20.788c3.606-3.606,8.591-5.939,14.955-5.939
		s11.349,2.333,14.955,5.939c5.303,5.409,6.364,12.728,6.364,20.788S236.364,46.513,231.061,51.923z M225.652,15.012
		c-2.439-2.439-5.833-3.817-9.546-3.817s-7,1.378-9.44,3.817c-3.818,3.818-4.242,10.289-4.242,16.122
		c0,5.834,0.424,12.304,4.242,16.122c2.44,2.439,5.728,3.818,9.44,3.818s7.106-1.379,9.546-3.818
		c3.818-3.818,4.136-10.288,4.136-16.122C229.788,25.301,229.47,18.83,225.652,15.012z"/>
	<path fill="#666666" d="M284.381,57.226V25.088c0-9.228-4.985-13.894-12.834-13.894c-7.848,0-12.939,4.772-12.939,13.894v32.138
		h-7.636V5.042h7.636v5.728c3.712-4.242,8.804-6.363,14.637-6.363c5.621,0,10.183,1.696,13.364,4.879
		c3.712,3.605,5.409,8.484,5.409,14.53v33.41H284.381z"/>
	<path fill="#666666" d="M306.9,32.194v-7.106h29.062v7.106H306.9z"/>
	<path fill="#666666" d="M367.124,57.862c-8.803,0-15.697-2.016-21.425-7.531l5.091-5.091c4.137,4.349,9.759,6.046,16.229,6.046
		c8.591,0,13.895-3.076,13.895-9.228c0-4.561-2.652-7.106-8.697-7.637l-8.592-0.742c-10.182-0.849-15.591-5.409-15.591-14.001
		c0-9.546,8.061-15.272,19.197-15.272c7.425,0,14.106,1.803,18.773,5.621l-4.985,4.984c-3.712-2.863-8.485-4.136-13.895-4.136
		c-7.637,0-11.667,3.288-11.667,8.591c0,4.455,2.546,7.106,9.122,7.637l8.379,0.742c9.121,0.849,15.379,4.349,15.379,14.106
		C388.337,52.028,379.746,57.862,367.124,57.862z"/>
	<path fill="#666666" d="M432.004,57.226V52.24c-4.243,4.243-8.061,5.622-15.062,5.622c-7.212,0-11.454-1.379-14.742-4.773
		c-2.546-2.545-3.925-6.47-3.925-10.606c0-9.121,6.364-15.061,18.031-15.061h15.697v-4.985c0-7.637-3.818-11.455-13.364-11.455
		c-6.682,0-10.076,1.591-13.151,5.939l-5.197-4.772c4.666-6.046,9.97-7.742,18.455-7.742c14,0,20.895,6.045,20.895,17.394v35.426
		H432.004z M432.004,33.149h-14.637c-7.849,0-11.667,3.182-11.667,9.228c0,6.045,3.712,8.909,11.985,8.909
		c4.454,0,8.379-0.318,11.667-3.5c1.803-1.697,2.651-4.667,2.651-9.016V33.149z"/>
	<path fill="#666666" d="M473.019,57.226h-6.788L447.14,5.042h8.272l14.213,41.896l14.318-41.896h8.273L473.019,57.226z"/>
	<path fill="#666666" d="M505.072,33.149c0,11.454,5.409,18.03,15.38,18.03c6.045,0,9.545-1.803,13.682-5.939l5.197,4.561
		c-5.303,5.304-10.182,8.062-19.092,8.062c-13.788,0-22.804-8.273-22.804-26.729c0-16.864,8.167-26.728,21.425-26.728
		c13.471,0,21.426,9.758,21.426,25.243v3.5H505.072z M531.059,18.725c-2.016-4.773-6.683-7.849-12.198-7.849
		c-5.515,0-10.182,3.075-12.197,7.849c-1.166,2.863-1.379,4.454-1.591,8.697h27.577C532.437,23.179,532.225,21.588,531.059,18.725z"
		/>
</g>
<g>
	<path fill="#666666" d="M129.627,45.108c-3.852,0-6.372-0.972-8.783-3.384l1.872-1.871c2.124,2.123,4.104,2.808,6.983,2.808
		c3.744,0,6.047-1.764,6.047-4.752c0-1.332-0.396-2.483-1.224-3.203c-0.828-0.72-1.476-0.937-3.348-1.224l-2.987-0.469
		c-2.016-0.323-3.6-0.972-4.715-1.943c-1.296-1.152-1.944-2.735-1.944-4.787c0-4.355,3.131-7.235,8.207-7.235
		c3.275,0,5.435,0.828,7.631,2.808l-1.764,1.764c-1.584-1.439-3.276-2.195-5.975-2.195c-3.42,0-5.399,1.907-5.399,4.751
		c0,1.26,0.36,2.268,1.152,2.952c0.792,0.684,2.124,1.188,3.456,1.403l2.808,0.432c2.412,0.36,3.6,0.864,4.679,1.8
		c1.404,1.188,2.16,2.952,2.16,5.076C138.481,42.337,134.954,45.108,129.627,45.108z"/>
</g>
<g>
	<path fill="#666666" d="M12.725,53.334c-2.233,0-3.925-1.513-3.925-4.538c0-3.024,1.692-4.537,3.925-4.537
		c1.224,0,1.999,0.324,2.917,1.314l-0.882,0.828c-0.667-0.738-1.188-0.99-2.035-0.99c-0.864,0-1.584,0.342-2.053,1.009
		c-0.414,0.576-0.576,1.26-0.576,2.376c0,1.117,0.162,1.801,0.576,2.377c0.468,0.666,1.188,1.009,2.053,1.009
		c0.846,0,1.368-0.271,2.035-1.009l0.882,0.847C14.724,53.01,13.949,53.334,12.725,53.334z"/>
	<path fill="#666666" d="M29.485,53.226V47.77c0-1.566-0.846-2.358-2.179-2.358c-1.296,0-2.215,0.811-2.215,2.215v5.6h-1.296V47.77
		c0-1.566-0.846-2.358-2.179-2.358c-1.332,0-2.214,0.811-2.214,2.358v5.456h-1.296v-8.858h1.296v0.972
		c0.63-0.72,1.512-1.08,2.502-1.08c1.225,0,2.179,0.504,2.719,1.477c0.685-0.973,1.675-1.477,2.917-1.477
		c0.955,0,1.747,0.307,2.287,0.828c0.63,0.612,0.955,1.44,0.955,2.467v5.672H29.485z"/>
	<path fill="#666666" d="M39.221,53.226v-1.062c-0.72,0.937-1.548,1.171-2.521,1.171c-0.9,0-1.693-0.307-2.161-0.774
		c-0.9-0.9-1.08-2.377-1.08-3.764c0-1.386,0.18-2.862,1.08-3.763c0.468-0.468,1.261-0.774,2.161-0.774
		c0.972,0,1.782,0.216,2.502,1.135v-4.988H40.5v12.82H39.221z M36.989,45.411c-1.927,0-2.233,1.656-2.233,3.385
		s0.306,3.386,2.233,3.386c1.926,0,2.214-1.657,2.214-3.386S38.915,45.411,36.989,45.411z"/>
</g>
<path fill="none" stroke="#666666" stroke-miterlimit="10" d="M85.5,58.5c0,1.657-1.343,3-3,3h-79c-1.657,0-3-1.343-3-3v-55
	c0-1.657,1.343-3,3-3h79c1.657,0,3,1.343,3,3V58.5z"/>
<path fill="none" stroke="#666666" stroke-miterlimit="10" d="M159.5,58.5c0,1.657-1.343,3-3,3h-55c-1.657,0-3-1.343-3-3v-55
	c0-1.657,1.343-3,3-3h55c1.657,0,3,1.343,3,3V58.5z"/>
<g>
	<path fill="#666666" d="M68.292,49.491v1.869c0,0.938-0.339,1.741-1.017,2.412c-0.678,0.67-1.493,1.005-2.445,1.005
		c-0.952,0-1.766-0.337-2.439-1.011c-0.674-0.674-1.011-1.491-1.011-2.45c0-0.938,0.337-1.748,1.011-2.429
		c0.674-0.682,1.476-1.022,2.407-1.022h1.868v-3.253h-1.868c-0.931,0-1.733-0.341-2.407-1.022c-0.674-0.681-1.011-1.494-1.011-2.439
		c0-0.952,0.337-1.766,1.011-2.439c0.674-0.674,1.487-1.011,2.439-1.011c0.953,0,1.768,0.335,2.445,1.005
		c0.678,0.671,1.017,1.475,1.017,2.412v1.868h3.253v-1.868c0-0.938,0.339-1.741,1.017-2.412c0.678-0.67,1.493-1.005,2.445-1.005
		c0.959,0,1.775,0.337,2.445,1.011c0.67,0.674,1.006,1.487,1.006,2.439c0,0.945-0.335,1.759-1.006,2.439
		c-0.67,0.682-1.474,1.022-2.412,1.022h-1.868v3.253h1.868c0.938,0,1.742,0.341,2.412,1.022c0.67,0.681,1.006,1.49,1.006,2.429
		c0,0.959-0.335,1.776-1.006,2.45c-0.67,0.674-1.485,1.011-2.445,1.011c-0.953,0-1.768-0.335-2.445-1.005
		c-0.678-0.671-1.017-1.475-1.017-2.412v-1.869H68.292z M66.666,42.985V41.15c0-0.506-0.18-0.936-0.539-1.291
		s-0.791-0.533-1.297-0.533c-0.498,0-0.927,0.178-1.286,0.533s-0.539,0.785-0.539,1.291s0.18,0.938,0.539,1.297
		c0.359,0.359,0.792,0.538,1.297,0.538H66.666z M66.666,49.491h-1.824c-0.505,0-0.938,0.18-1.297,0.539s-0.539,0.787-0.539,1.286
		c0,0.505,0.18,0.938,0.539,1.296c0.359,0.359,0.792,0.539,1.297,0.539c0.498,0,0.927-0.18,1.286-0.539
		c0.359-0.358,0.539-0.787,0.539-1.285V49.491z M68.292,47.865h3.253v-3.253h-3.253V47.865z M73.172,42.985h1.835
		c0.498,0,0.927-0.179,1.286-0.538c0.359-0.358,0.539-0.791,0.539-1.297s-0.178-0.936-0.533-1.291s-0.786-0.533-1.291-0.533
		c-0.506,0-0.938,0.178-1.297,0.533s-0.539,0.785-0.539,1.291V42.985z M73.172,49.491v1.836c0,0.498,0.18,0.927,0.539,1.285
		c0.359,0.359,0.791,0.539,1.297,0.539c0.505,0,0.936-0.18,1.291-0.539c0.355-0.358,0.533-0.791,0.533-1.296
		c0-0.499-0.18-0.927-0.539-1.286s-0.788-0.539-1.286-0.539H73.172z"/>
</g>
</svg>
